<?xml version="1.0" standalone="no"?>
<!DOCTYPE svg PUBLIC "-//W3C//DTD SVG 20010904//EN"
 "http://www.w3.org/TR/2001/REC-SVG-20010904/DTD/svg10.dtd">
<svg version="1.0" xmlns="http://www.w3.org/2000/svg"
 width="512.000000pt" height="512.000000pt" viewBox="0 0 512.000000 512.000000"
 preserveAspectRatio="xMidYMid meet">

<g transform="translate(0.000000,512.000000) scale(0.100000,-0.100000)"
fill="#000000" stroke="none">
<path d="M2486 5099 c-67 -36 -2100 -1211 -2115 -1223 -8 -6 -22 -29 -32 -51
-18 -38 -19 -102 -19 -1265 0 -1163 1 -1227 19 -1265 10 -22 24 -45 32 -51 17
-14 2060 -1194 2118 -1223 51 -27 91 -26 144 0 53 27 2038 1172 2090 1206 23
15 46 41 58 66 18 41 19 85 19 1267 0 1182 -1 1226 -19 1267 -12 25 -35 51
-58 66 -52 34 -2037 1179 -2090 1206 -52 26 -97 26 -147 0z m968 -817 c483
-280 878 -512 877 -518 -2 -17 -1755 -1024 -1776 -1020 -26 4 -1767 1010
-1767 1021 0 11 1753 1024 1772 1024 8 0 410 -228 894 -507z m-1933 -1294
l889 -513 0 -1033 c0 -861 -2 -1032 -13 -1025 -8 4 -411 237 -895 517 l-882
510 0 1028 c0 565 3 1028 6 1028 3 0 406 -231 895 -512z m2979 -516 l0 -1029
-872 -503 c-480 -277 -883 -510 -895 -518 l-23 -14 0 1033 1 1034 887 512
c488 282 890 512 895 512 4 1 7 -462 7 -1027z"/>
<path d="M2414 3900 c-31 -12 -72 -66 -80 -105 -16 -86 34 -157 124 -176 77
-16 212 -7 253 17 98 58 103 189 10 251 -31 21 -45 23 -160 22 -69 0 -135 -4
-147 -9z"/>
<path d="M1154 2586 c-17 -8 -42 -29 -55 -47 -22 -32 -24 -43 -24 -166 0 -117
2 -135 21 -159 36 -49 70 -68 122 -68 60 0 108 27 133 74 27 49 27 248 1 300
-35 70 -121 99 -198 66z"/>
<path d="M1744 1676 c-17 -7 -42 -29 -55 -47 -21 -30 -24 -47 -27 -151 -5
-148 12 -193 80 -227 53 -25 75 -26 128 -5 29 12 48 29 65 59 23 38 25 53 25
156 0 126 -12 166 -62 202 -34 25 -113 32 -154 13z"/>
<path d="M3980 2813 c-19 -10 -45 -33 -57 -52 -21 -31 -23 -46 -23 -161 0
-115 2 -130 23 -161 61 -91 181 -89 251 5 19 24 21 42 21 156 0 114 -2 132
-21 156 -50 68 -129 91 -194 57z"/>
<path d="M3551 2136 c-76 -27 -105 -99 -99 -246 4 -110 20 -146 78 -179 66
-37 136 -24 190 34 24 25 25 33 28 163 3 160 -7 189 -81 222 -48 22 -68 23
-116 6z"/>
<path d="M3082 1440 c-57 -35 -75 -93 -71 -224 4 -124 20 -160 82 -193 72 -37
145 -15 195 58 22 32 23 42 20 166 l-3 133 -37 37 c-33 32 -44 37 -95 40 -46
3 -65 0 -91 -17z"/>
</g>
</svg>
